<svg width="60" height="60" viewBox="0 0 60 60" fill="none" xmlns="http://www.w3.org/2000/svg">
<rect width="60" height="60" fill="white"/>
<rect width="60" height="60" fill="#FFBB00"/>
<path d="M43.7902 33.4626C43.0155 29.7233 40.046 26.767 36.2534 26C36.4148 26.5433 36.5117 27.1186 36.5117 27.7098C36.5117 30.8898 33.9133 33.4626 30.7017 33.4626H18.5816L17 45H34.3007C39.6587 45 44 40.7014 44 35.3961C43.9839 34.725 43.9193 34.0858 43.7902 33.4626Z" fill="#00003B"/>
<path d="M37.8721 18.0812C37.7922 17.7018 37.6803 17.3223 37.5524 16.9594V16.9429C36.8011 15.0127 35.1865 13.5279 33.2043 13C33.2202 13.1485 33.2202 13.297 33.2202 13.4454C33.2202 16.0025 31.206 18.0647 28.7442 18.0647H21.0391L20 26H31.6057C33.1403 26 34.5471 25.4391 35.6501 24.5152C37.0888 23.3109 38 21.4632 38 19.401C38 18.9391 37.968 18.4937 37.8721 18.0812Z" fill="#00003B"/>
</svg>
